<?xml version="1.0" standalone="no"?>
<!DOCTYPE svg PUBLIC "-//W3C//DTD SVG 20010904//EN"
 "http://www.w3.org/TR/2001/REC-SVG-20010904/DTD/svg10.dtd">
<svg version="1.0" xmlns="http://www.w3.org/2000/svg"
 width="64.000000pt" height="64.000000pt" viewBox="0 0 64.000000 64.000000"
 preserveAspectRatio="xMidYMid meet">

<g transform="translate(0.000000,64.000000) scale(0.100000,-0.100000)"
fill="#000000" stroke="none">
<path d="M261 486 c-19 -7 -30 -15 -25 -19 5 -3 16 -2 24 4 8 5 27 9 42 9 15
0 30 5 33 10 8 14 -32 11 -74 -4z"/>
<path d="M375 490 c3 -5 8 -10 11 -10 2 0 4 5 4 10 0 6 -5 10 -11 10 -5 0 -7
-4 -4 -10z"/>
<path d="M192 425 c-36 -43 -42 -104 -11 -123 10 -7 19 -9 20 -5 0 5 2 18 3
30 3 27 28 57 72 83 28 18 49 20 106 11 12 -2 38 -58 38 -81 0 -22 -22 -49
-55 -69 -18 -11 -18 -11 5 -5 55 14 73 57 50 118 -23 61 -120 78 -171 30 -14
-13 -30 -24 -37 -24 -15 0 -10 33 7 54 7 9 11 16 8 16 -2 0 -18 -16 -35 -35z"/>
<path d="M494 429 c0 -10 4 -19 8 -19 4 0 8 6 8 14 0 8 -4 17 -8 20 -4 2 -8
-4 -8 -15z"/>
<path d="M138 418 c-20 -32 -29 -58 -19 -58 8 0 24 30 35 63 7 23 1 21 -16 -5z"/>
<path d="M300 391 c0 -5 12 -11 28 -13 36 -4 42 -39 10 -63 -19 -15 -20 -16
-3 -10 11 4 28 8 38 9 9 0 17 3 17 7 0 4 3 14 6 22 8 23 -31 57 -66 57 -16 0
-30 -4 -30 -9z"/>
<path d="M505 380 c2 -31 15 -37 15 -7 0 15 -4 27 -8 27 -5 0 -8 -9 -7 -20z"/>
<path d="M249 363 c-13 -16 -12 -17 4 -4 9 7 17 15 17 17 0 8 -8 3 -21 -13z"/>
<path d="M316 345 c4 -8 10 -12 15 -9 11 6 2 24 -11 24 -5 0 -7 -7 -4 -15z"/>
<path d="M248 318 c-6 -16 3 -58 11 -58 4 0 5 16 3 35 -4 37 -8 43 -14 23z"/>
<path d="M287 323 c-19 -18 8 -62 38 -63 6 0 4 4 -2 8 -7 5 -14 20 -15 35 -2
27 -9 33 -21 20z"/>
<path d="M486 303 c-6 -14 -5 -15 5 -6 7 7 10 15 7 18 -3 3 -9 -2 -12 -12z"/>
<path d="M451 287 c-13 -21 -12 -21 5 -5 10 10 16 20 13 22 -3 3 -11 -5 -18
-17z"/>
<path d="M120 281 c0 -11 4 -22 9 -25 4 -3 6 6 3 19 -5 30 -12 33 -12 6z"/>
<path d="M210 257 c0 -53 43 -104 83 -98 10 1 17 -4 17 -14 0 -11 -5 -15 -15
-11 -8 3 -15 1 -15 -3 0 -12 26 -21 56 -21 24 0 32 14 14 25 -5 3 -10 1 -10
-5 0 -6 -5 -8 -11 -5 -6 5 -4 12 7 20 16 11 15 13 -14 20 -17 3 -36 4 -42 0
-5 -3 -10 3 -10 13 0 18 7 20 68 20 37 0 72 0 79 1 6 1 20 17 32 36 l20 35
-27 -20 c-52 -38 -192 -45 -192 -9 0 5 -9 13 -20 19 -16 8 -20 8 -20 -3z"/>
<path d="M140 222 c0 -15 34 -38 58 -40 20 -1 21 2 10 21 -11 21 -11 21 -19 2
-8 -19 -8 -19 -15 3 -6 21 -34 32 -34 14z"/>
<path d="M190 162 c0 -12 57 -52 75 -52 6 0 -6 10 -25 21 -19 12 -38 27 -42
33 -6 8 -8 7 -8 -2z"/>
<path d="M383 133 c9 -2 23 -2 30 0 6 3 -1 5 -18 5 -16 0 -22 -2 -12 -5z"/>
</g>
</svg>
